# xmcd CD database file
#
# Track frame offsets:
#	150
#	22257
#	51155
#	73787
#	100370
#	130405
#	158057
#	181492
#	207092
#	226390
#	251152
#
# Disc length: 3652 seconds
#
# Revision: 0
# Processed by: cddbd v1.5.1PL0 Copyright (c) Steve Scherf et al.
# Submitted via: CDex 1.51
#
DISCID=a10e420b
DTITLE=Makoto Kuriya - Latin Touch
DYEAR=2003
DGENRE=Jazz
TTITLE0=Insight
TTITLE1=The Voyager
TTITLE2=Je Te Veux
TTITLE3=Send One Your Love
TTITLE4=You Must Believe In Spring
TTITLE5=Don Segundo
TTITLE6=世界で一番君が好き？
TTITLE7=The Girl From Ipanema
TTITLE8=奇跡のスタースクレイパー
TTITLE9=Ultimate Zone
TTITLE10=Welcome Home
EXTD=YEAR: 2003
EXTT0=
EXTT1=
EXTT2=
EXTT3=
EXTT4=
EXTT5=
EXTT6=
EXTT7=
EXTT8=
EXTT9=
EXTT10=
PLAYORDER=
